<?xml version="1.0" encoding="utf-8"?>
<!-- Generator: Adobe Illustrator 23.0.1, SVG Export Plug-In . SVG Version: 6.00 Build 0)  -->
<svg version="1.1" id="Ebene_1" xmlns="http://www.w3.org/2000/svg" xmlns:xlink="http://www.w3.org/1999/xlink" x="0px" y="0px"
	 viewBox="0 0 1500 1000" style="enable-background:new 0 0 1500 1000;" xml:space="preserve">
<style type="text/css">
	.st0{fill:none;stroke:#000000;stroke-width:18;}
	.st1{stroke:#000000;stroke-width:18;}
	.st2{fill:none;stroke:#000000;stroke-width:18;stroke-linecap:round;}
</style>
<g>
	<path class="st0" d="M1186.25,607.59c0.41,5.57,0.62,11.19,0.62,16.86c0,124.08-100.58,224.66-224.66,224.66
		c-6.8,0-6.88,0.29-13.53-0.3"/>
	<line class="st0" x1="1186.88" y1="81.09" x2="1186.88" y2="628.17"/>
	<line class="st0" x1="284.74" y1="849.11" x2="958.07" y2="849.11"/>
	<path class="st0" d="M748.33,710.96c-11.57-27.29-17.96-57.29-17.96-88.79c0-125.76,101.95-227.71,227.71-227.71
		c39.78,0,77.17,10.2,109.72,28.13"/>
	<line class="st0" x1="1067.79" y1="426.96" x2="1067.79" y2="81.09"/>
	<line class="st0" x1="748.33" y1="710.96" x2="284.74" y2="710.96"/>
	<circle class="st1" cx="954.06" cy="612.14" r="34.66"/>
	<line class="st2" x1="843.26" y1="491.66" x2="1091.94" y2="740.34"/>
	<line class="st2" x1="1083.52" y1="483.25" x2="834.85" y2="731.92"/>
	<line class="st2" x1="782.22" y1="612.14" x2="1133.89" y2="612.14"/>
	<line class="st2" x1="959.19" y1="436.3" x2="959.19" y2="787.98"/>
	<path d="M1062.98,430.22c0,0,8.16,2.16,12.45,6.08c4.29,3.92,0.02-22,0.02-22"/>
	<path d="M748.33,719.86h19.5c0,0-9.59-8.57-11.84-13.27c-2.25-4.69-12.66,1.02-12.66,1.02"/>
</g>
</svg>
